Varta-Light.ufo
<glyph name="dotlessj" format="2">
  <advance width="491.0"/>
  <unicode hex="0237"/>
  <anchor x="246.0" y="-987.0" name="bottom"/>
  <anchor x="246.0" y="990.0" name="top"/>
  <outline>
    <contour>
      <point x="63.0" y="-454.0" type="curve" smooth="yes"/>
      <point x="242.0" y="-454.0"/>
      <point x="315.0" y="-343.0"/>
      <point x="315.0" y="-145.0" type="curve" smooth="yes"/>
      <point x="315.0" y="990.0" type="line"/>
      <point x="177.0" y="990.0" type="line"/>
      <point x="177.0" y="-142.0" type="line"/>
      <point x="177.0" y="-264.0"/>
      <point x="154.0" y="-341.0"/>
      <point x="51.0" y="-341.0" type="curve" smooth="yes"/>
      <point x="14.0" y="-341.0"/>
      <point x="-22.0" y="-332.0"/>
      <point x="-46.0" y="-324.0" type="curve"/>
      <point x="-76.0" y="-429.0" type="line"/>
      <point x="-43.0" y="-442.0"/>
      <point x="7.0" y="-454.0"/>
    </contour>
  </outline>
</glyph>
<glyph name="dieresiscomb" format="2">
  <unicode hex="0308"/>
  <anchor x="552.0" y="990.0" name="_top"/>
  <anchor x="552.0" y="1202.0" name="top"/>
  <outline>
    <contour>
      <point x="382.0" y="1123.0" type="curve" smooth="yes"/>
      <point x="433.0" y="1123.0"/>
      <point x="472.0" y="1161.0"/>
      <point x="472.0" y="1213.0" type="curve" smooth="yes"/>
      <point x="472.0" y="1263.0"/>
      <point x="433.0" y="1302.0"/>
      <point x="382.0" y="1302.0" type="curve" smooth="yes"/>
      <point x="331.0" y="1302.0"/>
      <point x="292.0" y="1263.0"/>
      <point x="292.0" y="1213.0" type="curve" smooth="yes"/>
      <point x="292.0" y="1161.0"/>
      <point x="331.0" y="1123.0"/>
    </contour>
    <contour>
      <point x="722.0" y="1123.0" type="curve" smooth="yes"/>
      <point x="775.0" y="1123.0"/>
      <point x="812.0" y="1161.0"/>
      <point x="812.0" y="1213.0" type="curve" smooth="yes"/>
      <point x="812.0" y="1263.0"/>
      <point x="775.0" y="1302.0"/>
      <point x="722.0" y="1302.0" type="curve" smooth="yes"/>
      <point x="671.0" y="1302.0"/>
      <point x="634.0" y="1263.0"/>
      <point x="634.0" y="1213.0" type="curve" smooth="yes"/>
      <point x="634.0" y="1161.0"/>
      <point x="671.0" y="1123.0"/>
    </contour>
  </outline>
</glyph>
<glyph name="hungarumlautcomb" format="2">
  <unicode hex="030B"/>
  <anchor x="565.0" y="990.0" name="_top"/>
  <anchor x="644.5" y="1457.0" name="top"/>
  <outline>
    <contour>
      <point x="364.0" y="1168.0" type="line"/>
      <point x="460.0" y="1168.0" type="line"/>
      <point x="636.0" y="1457.0" type="line"/>
      <point x="511.0" y="1457.0" type="line"/>
    </contour>
    <contour>
      <point x="654.0" y="1168.0" type="line"/>
      <point x="749.0" y="1168.0" type="line"/>
      <point x="925.0" y="1457.0" type="line"/>
      <point x="800.0" y="1457.0" type="line"/>
    </contour>
  </outline>
</glyph>
<glyph name="invertedCandraBindu-deva" format="2">
  <unicode hex="0900"/>
  <anchor x="273.0" y="1247.0" name="_candra"/>
  <anchor x="264.0" y="1889.0" name="top"/>
  <outline>
    <contour>
      <point x="270.0" y="1772.0" type="curve" smooth="yes"/>
      <point x="111.0" y="1772.0"/>
      <point x="16.0" y="1681.0"/>
      <point x="-31.0" y="1584.0" type="curve"/>
      <point x="49.0" y="1534.0" type="line"/>
      <point x="94.0" y="1605.0"/>
      <point x="158.0" y="1662.0"/>
      <point x="271.0" y="1662.0" type="curve" smooth="yes"/>
      <point x="388.0" y="1662.0"/>
      <point x="451.0" y="1597.0"/>
      <point x="493.0" y="1532.0" type="curve"/>
      <point x="570.0" y="1579.0" type="line"/>
      <point x="508.0" y="1703.0"/>
      <point x="405.0" y="1772.0"/>
    </contour>
    <contour>
      <point x="265.0" y="1593.0" type="curve" smooth="yes"/>
      <point x="208.0" y="1593.0"/>
      <point x="183.0" y="1569.0"/>
      <point x="183.0" y="1512.0" type="curve" smooth="yes"/>
      <point x="183.0" y="1455.0"/>
      <point x="208.0" y="1431.0"/>
      <point x="265.0" y="1431.0" type="curve" smooth="yes"/>
      <point x="323.0" y="1431.0"/>
      <point x="347.0" y="1455.0"/>
      <point x="347.0" y="1512.0" type="curve" smooth="yes"/>
      <point x="347.0" y="1569.0"/>
      <point x="323.0" y="1593.0"/>
    </contour>
  </outline>
</glyph>
<glyph name="aiMatra_reph_candraBindu-deva" format="2">
  <advance width="540.0"/>
  <anchor x="254.0" y="1247.0" name="_top"/>
  <anchor x="209.0" y="1633.0" name="candra"/>
  <anchor x="210.0" y="1630.0" name="top"/>
  <outline>
    <contour>
      <point x="292.0" y="1207.0" type="curve"/>
      <point x="329.0" y="1233.0" type="line"/>
      <point x="294.0" y="1281.0"/>
      <point x="279.0" y="1344.0"/>
      <point x="279.0" y="1429.0" type="curve" smooth="yes"/>
      <point x="279.0" y="1574.0"/>
      <point x="347.0" y="1651.0"/>
      <point x="470.0" y="1651.0" type="curve" smooth="yes"/>
      <point x="540.0" y="1651.0"/>
      <point x="602.0" y="1627.0"/>
      <point x="649.0" y="1600.0" type="curve"/>
      <point x="682.0" y="1698.0" type="line"/>
      <point x="629.0" y="1736.0"/>
      <point x="543.0" y="1761.0"/>
      <point x="457.0" y="1761.0" type="curve" smooth="yes"/>
      <point x="294.0" y="1761.0"/>
      <point x="175.0" y="1649.0"/>
      <point x="175.0" y="1478.0" type="curve" smooth="yes"/>
      <point x="175.0" y="1390.0"/>
      <point x="205.0" y="1297.0"/>
    </contour>
    <contour>
      <point x="244.0" y="1183.0" type="curve"/>
      <point x="308.0" y="1206.0" type="line"/>
      <point x="204.0" y="1668.0"/>
      <point x="61.0" y="1779.0"/>
      <point x="-228.0" y="1779.0" type="curve" smooth="yes"/>
      <point x="-296.0" y="1779.0"/>
      <point x="-343.0" y="1771.0"/>
      <point x="-394.0" y="1762.0" type="curve"/>
      <point x="-373.0" y="1661.0" type="line"/>
      <point x="-320.0" y="1671.0"/>
      <point x="-274.0" y="1677.0"/>
      <point x="-219.0" y="1677.0" type="curve" smooth="yes"/>
      <point x="-30.0" y="1677.0"/>
      <point x="94.0" y="1626.0"/>
      <point x="211.0" y="1301.0" type="curve"/>
      <point x="239.0" y="1305.0" type="line"/>
      <point x="93.0" y="1474.0"/>
      <point x="35.0" y="1525.0"/>
      <point x="-147.0" y="1527.0" type="curve" smooth="yes"/>
      <point x="-226.0" y="1528.0"/>
      <point x="-286.0" y="1519.0"/>
      <point x="-345.0" y="1508.0" type="curve"/>
      <point x="-323.0" y="1414.0" type="line"/>
      <point x="-258.0" y="1425.0"/>
      <point x="-199.0" y="1431.0"/>
      <point x="-135.0" y="1431.0" type="curve" smooth="yes"/>
      <point x="48.0" y="1431.0"/>
      <point x="121.0" y="1350.0"/>
    </contour>
    <component base="candraBindu-deva" xScale="0.64684" yScale="0.64684" xOffset="342.0" yOffset="422.0"/>
  </outline>
</glyph>
<glyph name="ba_ra-deva" format="2">
  <advance width="1103.0"/>
  <anchor x="830.0" y="28.0" name="bottom"/>
  <anchor x="562.0" y="1248.0" name="candra"/>
  <anchor x="830.0" y="1288.0" name="top"/>
  <anchor x="248.0" y="44.0" name="nukta"/>
  <outline>
    <contour>
      <point x="268.0" y="-43.0" type="line"/>
      <point x="806.0" y="354.0" type="line"/>
      <point x="774.0" y="419.0" type="line"/>
      <point x="196.0" y="52.0" type="line"/>
    </contour>
    <component base="ba-deva"/>
  </outline>
</glyph>
<glyph name="brevecomb.cap" format="2">
  <anchor x="255.0" y="1346.0" name="_top"/>
  <anchor x="255.0" y="1673.0" name="top"/>
  <outline>
    <contour>
      <point x="255.0" y="1482.0" type="curve" smooth="yes"/>
      <point x="416.0" y="1482.0"/>
      <point x="487.0" y="1597.0"/>
      <point x="500.0" y="1703.0" type="curve"/>
      <point x="412.0" y="1703.0" type="line"/>
      <point x="400.0" y="1635.0"/>
      <point x="353.0" y="1566.0"/>
      <point x="255.0" y="1566.0" type="curve" smooth="yes"/>
      <point x="157.0" y="1566.0"/>
      <point x="110.0" y="1635.0"/>
      <point x="98.0" y="1703.0" type="curve"/>
      <point x="10.0" y="1703.0" type="line"/>
      <point x="23.0" y="1597.0"/>
      <point x="94.0" y="1482.0"/>
    </contour>
  </outline>
</glyph>
<glyph name="c_ra-deva" format="2">
  <advance width="739.0"/>
  <outline>
    <contour>
      <point x="303.0" y="-30.0" type="line"/>
      <point x="802.0" y="299.0" type="line"/>
      <point x="770.0" y="364.0" type="line"/>
      <point x="234.0" y="67.0" type="line"/>
    </contour>
    <component base="c-deva"/>
  </outline>
</glyph>
<glyph name="da_ra-deva" format="2">
  <advance width="1025.0"/>
  <anchor x="138.0" y="0.0" name="nukta"/>
  <anchor x="979.0" y="-27.0" name="bottom"/>
  <anchor x="644.0" y="1247.0" name="candra"/>
  <anchor x="720.0" y="1247.0" name="top"/>
  <outline>
    <contour>
      <point x="392.0" y="-165.0" type="line" smooth="yes"/>
      <point x="833.0" y="196.0" type="line"/>
      <point x="804.0" y="262.0" type="line"/>
      <point x="317.0" y="-75.0" type="line"/>
    </contour>
    <component base="da-deva"/>
  </outline>
</glyph>
<glyph name="ddh_ddh_ya-deva" format="2">
  <advance width="2223.0"/>
  <anchor x="1925.0" y="0.0" name="bottom"/>
  <anchor x="1928.0" y="1248.0" name="candra"/>
  <anchor x="1925.0" y="1288.0" name="top"/>
  <anchor x="-11.0" y="-452.0" name="nukta"/>
  <outline>
    <contour>
      <point x="1047.0" y="1143.0" type="line"/>
      <point x="2236.0" y="1143.0" type="line"/>
      <point x="2236.0" y="1247.0" type="line"/>
      <point x="1047.0" y="1247.0" type="line"/>
    </contour>
    <contour>
      <point x="1552.0" y="159.0" type="curve" smooth="yes"/>
      <point x="1679.0" y="159.0"/>
      <point x="1792.0" y="206.0"/>
      <point x="1882.0" y="300.0" type="curve"/>
      <point x="1886.0" y="461.0" type="line"/>
      <point x="1804.0" y="324.0"/>
      <point x="1657.0" y="274.0"/>
      <point x="1545.0" y="274.0" type="curve" smooth="yes"/>
      <point x="1397.0" y="274.0"/>
      <point x="1285.0" y="362.0"/>
      <point x="1249.0" y="530.0" type="curve"/>
      <point x="1227.0" y="482.0" type="line"/>
      <point x="1325.0" y="504.0"/>
      <point x="1506.0" y="581.0"/>
      <point x="1506.0" y="762.0" type="curve" smooth="yes"/>
      <point x="1506.0" y="943.0"/>
      <point x="1394.0" y="991.0"/>
      <point x="1215.0" y="991.0" type="curve" smooth="yes"/>
      <point x="786.0" y="991.0" type="line"/>
      <point x="842.0" y="888.0" type="line"/>
      <point x="1233.0" y="887.0" type="line" smooth="yes"/>
      <point x="1330.0" y="887.0"/>
      <point x="1387.0" y="859.0"/>
      <point x="1387.0" y="755.0" type="curve" smooth="yes"/>
      <point x="1387.0" y="686.0"/>
      <point x="1313.0" y="616.0"/>
      <point x="1125.0" y="564.0" type="curve"/>
      <point x="1184.0" y="299.0"/>
      <point x="1332.0" y="159.0"/>
    </contour>
    <contour>
      <point x="1862.0" y="0.0" type="line"/>
      <point x="1988.0" y="0.0" type="line"/>
      <point x="1988.0" y="1170.0" type="line"/>
      <point x="1862.0" y="1170.0" type="line"/>
    </contour>
    <component base="ddh_ddha-deva"/>
  </outline>
</glyph>
<glyph name="dh_ra-deva" format="2">
  <advance width="711.0"/>
  <outline>
    <contour>
      <point x="308.0" y="-37.0" type="line"/>
      <point x="809.0" y="338.0" type="line"/>
      <point x="784.0" y="415.0" type="line"/>
      <point x="234.0" y="60.0" type="line"/>
    </contour>
    <component base="dh-deva"/>
  </outline>
</glyph>
<glyph name="dieresiscomb.cap" format="2">
  <anchor x="270.0" y="1346.0" name="_top"/>
  <anchor x="270.0" y="1652.0" name="top"/>
  <outline>
    <contour>
      <point x="440.0" y="1494.0" type="curve" smooth="yes"/>
      <point x="493.0" y="1494.0"/>
      <point x="530.0" y="1530.0"/>
      <point x="530.0" y="1584.0" type="curve" smooth="yes"/>
      <point x="530.0" y="1638.0"/>
      <point x="493.0" y="1673.0"/>
      <point x="440.0" y="1673.0" type="curve" smooth="yes"/>
      <point x="389.0" y="1673.0"/>
      <point x="350.0" y="1638.0"/>
      <point x="350.0" y="1584.0" type="curve" smooth="yes"/>
      <point x="350.0" y="1530.0"/>
      <point x="389.0" y="1494.0"/>
    </contour>
    <contour>
      <point x="100.0" y="1494.0" type="curve" smooth="yes"/>
      <point x="151.0" y="1494.0"/>
      <point x="190.0" y="1530.0"/>
      <point x="190.0" y="1584.0" type="curve" smooth="yes"/>
      <point x="190.0" y="1638.0"/>
      <point x="151.0" y="1673.0"/>
      <point x="100.0" y="1673.0" type="curve" smooth="yes"/>
      <point x="47.0" y="1673.0"/>
      <point x="10.0" y="1638.0"/>
      <point x="10.0" y="1584.0" type="curve" smooth="yes"/>
      <point x="10.0" y="1530.0"/>
      <point x="47.0" y="1494.0"/>
    </contour>
  </outline>
</glyph>
<glyph name="dotaccentcomb.cap" format="2">
  <anchor x="113.0" y="1346.0" name="_top"/>
  <anchor x="113.0" y="1664.0" name="top"/>
  <outline>
    <contour>
      <point x="113.0" y="1488.0" type="curve" smooth="yes"/>
      <point x="170.0" y="1488.0"/>
      <point x="216.0" y="1528.0"/>
      <point x="216.0" y="1588.0" type="curve" smooth="yes"/>
      <point x="216.0" y="1645.0"/>
      <point x="170.0" y="1684.0"/>
      <point x="113.0" y="1684.0" type="curve" smooth="yes"/>
      <point x="56.0" y="1684.0"/>
      <point x="10.0" y="1645.0"/>
      <point x="10.0" y="1588.0" type="curve" smooth="yes"/>
      <point x="10.0" y="1528.0"/>
      <point x="56.0" y="1488.0"/>
    </contour>
  </outline>
</glyph>
<glyph name="eight.lf" format="2">
  <advance width="1064.0"/>
  <outline>
    <contour>
      <point x="537.0" y="-25.0" type="curve" smooth="yes"/>
      <point x="804.0" y="-25.0"/>
      <point x="949.0" y="142.0"/>
      <point x="949.0" y="335.0" type="curve" smooth="yes"/>
      <point x="949.0" y="512.0"/>
      <point x="835.0" y="608.0"/>
      <point x="721.0" y="676.0" type="curve"/>
      <point x="721.0" y="684.0" type="line"/>
      <point x="798.0" y="746.0"/>
      <point x="904.0" y="880.0"/>
      <point x="904.0" y="1020.0" type="curve" smooth="yes"/>
      <point x="904.0" y="1220.0"/>
      <point x="770.0" y="1370.0"/>
      <point x="544.0" y="1370.0" type="curve" smooth="yes"/>
      <point x="330.0" y="1370.0"/>
      <point x="181.0" y="1228.0"/>
      <point x="181.0" y="1033.0" type="curve" smooth="yes"/>
      <point x="181.0" y="895.0"/>
      <point x="270.0" y="788.0"/>
      <point x="367.0" y="722.0" type="curve"/>
      <point x="367.0" y="714.0" type="line"/>
      <point x="244.0" y="648.0"/>
      <point x="114.0" y="521.0"/>
      <point x="114.0" y="349.0" type="curve" smooth="yes"/>
      <point x="114.0" y="142.0"/>
      <point x="285.0" y="-25.0"/>
    </contour>
    <contour>
      <point x="539.0" y="80.0" type="curve" smooth="yes"/>
      <point x="359.0" y="80.0"/>
      <point x="241.0" y="208.0"/>
      <point x="241.0" y="360.0" type="curve" smooth="yes"/>
      <point x="241.0" y="489.0"/>
      <point x="326.0" y="596.0"/>
      <point x="443.0" y="669.0" type="curve"/>
      <point x="637.0" y="592.0"/>
      <point x="816.0" y="521.0"/>
      <point x="816.0" y="340.0" type="curve" smooth="yes"/>
      <point x="816.0" y="199.0"/>
      <point x="725.0" y="80.0"/>
    </contour>
    <contour>
      <point x="631.0" y="722.0" type="curve"/>
      <point x="467.0" y="786.0"/>
      <point x="310.0" y="865.0"/>
      <point x="310.0" y="1033.0" type="curve" smooth="yes"/>
      <point x="310.0" y="1166.0"/>
      <point x="399.0" y="1266.0"/>
      <point x="541.0" y="1266.0" type="curve" smooth="yes"/>
      <point x="696.0" y="1266.0"/>
      <point x="782.0" y="1150.0"/>
      <point x="782.0" y="1014.0" type="curve" smooth="yes"/>
      <point x="782.0" y="912.0"/>
      <point x="728.0" y="805.0"/>
    </contour>
  </outline>
</glyph>
<glyph name="five.osf" format="2">
  <advance width="1003.0"/>
  <outline>
    <contour>
      <point x="479.0" y="-174.0" type="curve" smooth="yes"/>
      <point x="700.0" y="-174.0"/>
      <point x="905.0" y="-17.0"/>
      <point x="905.0" y="273.0" type="curve" smooth="yes"/>
      <point x="905.0" y="558.0"/>
      <point x="724.0" y="686.0"/>
      <point x="501.0" y="686.0" type="curve" smooth="yes"/>
      <point x="415.0" y="686.0"/>
      <point x="351.0" y="661.0"/>
      <point x="287.0" y="625.0" type="curve"/>
      <point x="325.0" y="1053.0" type="line"/>
      <point x="837.0" y="1053.0" type="line"/>
      <point x="837.0" y="1173.0" type="line"/>
      <point x="204.0" y="1173.0" type="line"/>
      <point x="160.0" y="544.0" type="line"/>
      <point x="239.0" y="494.0" type="line"/>
      <point x="317.0" y="546.0"/>
      <point x="376.0" y="577.0"/>
      <point x="470.0" y="577.0" type="curve" smooth="yes"/>
      <point x="649.0" y="577.0"/>
      <point x="766.0" y="461.0"/>
      <point x="766.0" y="266.0" type="curve" smooth="yes"/>
      <point x="766.0" y="65.0"/>
      <point x="634.0" y="-58.0"/>
      <point x="468.0" y="-58.0" type="curve" smooth="yes"/>
      <point x="304.0" y="-58.0"/>
      <point x="207.0" y="12.0"/>
      <point x="129.0" y="89.0" type="curve"/>
      <point x="60.0" y="1.0" type="line"/>
      <point x="148.0" y="-89.0"/>
      <point x="270.0" y="-174.0"/>
    </contour>
  </outline>
</glyph>
<glyph name="five.tf" format="2">
  <advance width="1003.0"/>
  <outline>
    <contour>
      <point x="480.0" y="-174.0" type="curve" smooth="yes"/>
      <point x="701.0" y="-174.0"/>
      <point x="905.0" y="-7.0"/>
      <point x="905.0" y="278.0" type="curve" smooth="yes"/>
      <point x="905.0" y="564.0"/>
      <point x="734.0" y="687.0"/>
      <point x="501.0" y="687.0" type="curve" smooth="yes"/>
      <point x="415.0" y="687.0"/>
      <point x="351.0" y="662.0"/>
      <point x="287.0" y="627.0" type="curve"/>
      <point x="325.0" y="1053.0" type="line"/>
      <point x="837.0" y="1053.0" type="line"/>
      <point x="837.0" y="1173.0" type="line"/>
      <point x="204.0" y="1173.0" type="line"/>
      <point x="160.0" y="546.0" type="line"/>
      <point x="239.0" y="496.0" type="line"/>
      <point x="317.0" y="548.0"/>
      <point x="376.0" y="578.0"/>
      <point x="470.0" y="578.0" type="curve" smooth="yes"/>
      <point x="649.0" y="578.0"/>
      <point x="766.0" y="471.0"/>
      <point x="766.0" y="273.0" type="curve" smooth="yes"/>
      <point x="766.0" y="78.0"/>
      <point x="636.0" y="-58.0"/>
      <point x="470.0" y="-58.0" type="curve" smooth="yes"/>
      <point x="306.0" y="-58.0"/>
      <point x="210.0" y="14.0"/>
      <point x="132.0" y="85.0" type="curve"/>
      <point x="62.0" y="-3.0" type="line"/>
      <point x="150.0" y="-87.0"/>
      <point x="271.0" y="-174.0"/>
    </contour>
  </outline>
</glyph>
<glyph name="g_n_ya-deva" format="2">
  <advance width="1753.0"/>
  <anchor x="1477.0" y="0.0" name="bottom"/>
  <anchor x="1391.0" y="1247.0" name="candra"/>
  <anchor x="286.0" y="94.0" name="nukta_1"/>
  <anchor x="810.0" y="64.0" name="nukta_2"/>
  <anchor x="1477.0" y="1247.0" name="top"/>
  <outline>
    <contour>
      <point x="492.0" y="10.0" type="line"/>
      <point x="514.0" y="31.0"/>
      <point x="522.0" y="50.0"/>
      <point x="522.0" y="69.0" type="curve" smooth="yes"/>
      <point x="522.0" y="89.0"/>
      <point x="514.0" y="109.0"/>
      <point x="500.0" y="128.0" type="curve" smooth="yes"/>
      <point x="431.0" y="225.0" type="line"/>
      <point x="414.0" y="171.0" type="line"/>
      <point x="851.0" y="435.0" type="line"/>
      <point x="801.0" y="526.0" type="line"/>
      <point x="222.0" y="173.0" type="line"/>
      <point x="280.0" y="83.0" type="line"/>
    </contour>
    <component base="g-deva"/>
    <component base="ya-deva" xOffset="614.0"/>
  </outline>
</glyph>
<glyph name="gh_ra-deva" format="2">
  <advance width="691.0"/>
  <outline>
    <contour>
      <point x="310.0" y="-32.0" type="line"/>
      <point x="781.0" y="327.0" type="line"/>
      <point x="755.0" y="406.0" type="line"/>
      <point x="233.0" y="62.0" type="line"/>
    </contour>
    <component base="gh-deva"/>
  </outline>
</glyph>
<glyph name="ha_rVocalicMatra-deva" format="2">
  <advance width="997.0"/>
  <anchor x="747.0" y="-235.0" name="bottom"/>
  <anchor x="658.0" y="1247.0" name="candra"/>
  <anchor x="746.0" y="1247.0" name="top"/>
  <outline>
    <contour>
      <point x="777.0" y="-336.0" type="curve"/>
      <point x="808.0" y="-231.0" type="line"/>
      <point x="476.0" y="-165.0"/>
      <point x="224.0" y="-4.0"/>
      <point x="224.0" y="213.0" type="curve" smooth="yes"/>
      <point x="224.0" y="342.0"/>
      <point x="314.0" y="450.0"/>
      <point x="541.0" y="450.0" type="curve" smooth="yes"/>
      <point x="673.0" y="450.0"/>
      <point x="739.0" y="416.0"/>
      <point x="739.0" y="382.0" type="curve" smooth="yes"/>
      <point x="739.0" y="358.0"/>
      <point x="716.0" y="346.0"/>
      <point x="648.0" y="310.0" type="curve" smooth="yes"/>
      <point x="566.0" y="267.0"/>
      <point x="506.0" y="232.0"/>
      <point x="506.0" y="147.0" type="curve" smooth="yes"/>
      <point x="506.0" y="53.0"/>
      <point x="577.0" y="-32.0"/>
      <point x="745.0" y="-32.0" type="curve" smooth="yes"/>
      <point x="799.0" y="-32.0"/>
      <point x="852.0" y="-24.0"/>
      <point x="901.0" y="-2.0" type="curve"/>
      <point x="877.0" y="99.0" type="line"/>
      <point x="828.0" y="81.0"/>
      <point x="770.0" y="70.0"/>
      <point x="728.0" y="71.0" type="curve" smooth="yes"/>
      <point x="654.0" y="71.0"/>
      <point x="617.0" y="97.0"/>
      <point x="617.0" y="138.0" type="curve" smooth="yes"/>
      <point x="617.0" y="182.0"/>
      <point x="648.0" y="192.0"/>
      <point x="741.0" y="241.0" type="curve" smooth="yes"/>
      <point x="823.0" y="285.0"/>
      <point x="858.0" y="319.0"/>
      <point x="858.0" y="389.0" type="curve" smooth="yes"/>
      <point x="858.0" y="498.0"/>
      <point x="712.0" y="562.0"/>
      <point x="532.0" y="562.0" type="curve" smooth="yes"/>
      <point x="276.0" y="562.0"/>
      <point x="97.0" y="440.0"/>
      <point x="97.0" y="225.0" type="curve" smooth="yes"/>
      <point x="97.0" y="20.0"/>
      <point x="250.0" y="-213.0"/>
    </contour>
    <contour>
      <point x="251.0" y="443.0" type="curve"/>
      <point x="333.0" y="481.0" type="line"/>
      <point x="289.0" y="551.0"/>
      <point x="240.0" y="648.0"/>
      <point x="245.0" y="720.0" type="curve" smooth="yes"/>
      <point x="249.0" y="783.0"/>
      <point x="293.0" y="810.0"/>
      <point x="393.0" y="810.0" type="curve" smooth="yes"/>
      <point x="809.0" y="810.0" type="line"/>
      <point x="809.0" y="1180.0" type="line"/>
      <point x="682.0" y="1180.0" type="line"/>
      <point x="682.0" y="921.0" type="line"/>
      <point x="367.0" y="921.0" type="line" smooth="yes"/>
      <point x="210.0" y="921.0"/>
      <point x="123.0" y="862.0"/>
      <point x="119.0" y="748.0" type="curve" smooth="yes"/>
      <point x="116.0" y="652.0"/>
      <point x="171.0" y="545.0"/>
    </contour>
    <contour>
      <point x="-12.0" y="1143.0" type="line"/>
      <point x="1010.0" y="1143.0" type="line"/>
      <point x="1010.0" y="1247.0" type="line"/>
      <point x="-12.0" y="1247.0" type="line"/>
    </contour>
  </outline>
</glyph>
<glyph name="hungarumlautcomb.cap" format="2">
  <anchor x="232.0" y="1346.0" name="_top"/>
  <anchor x="301.5" y="1673.0" name="top"/>
  <outline>
    <contour>
      <point x="323.0" y="1478.0" type="line"/>
      <point x="426.0" y="1478.0" type="line"/>
      <point x="593.0" y="1703.0" type="line"/>
      <point x="459.0" y="1703.0" type="line"/>
    </contour>
    <contour>
      <point x="10.0" y="1478.0" type="line"/>
      <point x="113.0" y="1478.0" type="line"/>
      <point x="280.0" y="1703.0" type="line"/>
      <point x="146.0" y="1703.0" type="line"/>
    </contour>
  </outline>
</glyph>
<glyph name="k_ss-deva" format="2">
  <advance width="939.0"/>
  <outline>
    <contour>
      <point x="463.0" y="83.0" type="curve" smooth="yes"/>
      <point x="556.0" y="83.0"/>
      <point x="653.0" y="102.0"/>
      <point x="711.0" y="152.0" type="curve"/>
      <point x="682.0" y="260.0" type="line"/>
      <point x="629.0" y="210.0"/>
      <point x="540.0" y="189.0"/>
      <point x="465.0" y="189.0" type="curve"/>
      <point x="346.0" y="189.0"/>
      <point x="223.0" y="243.0"/>
      <point x="223.0" y="405.0" type="curve" smooth="yes"/>
      <point x="223.0" y="548.0"/>
      <point x="298.0" y="589.0"/>
      <point x="529.0" y="710.0" type="curve" smooth="yes"/>
      <point x="702.0" y="800.0"/>
      <point x="788.0" y="896.0"/>
      <point x="788.0" y="1036.0" type="curve" smooth="yes"/>
      <point x="788.0" y="1198.0"/>
      <point x="671.0" y="1283.0"/>
      <point x="487.0" y="1283.0" type="curve" smooth="yes"/>
      <point x="299.0" y="1283.0"/>
      <point x="176.0" y="1196.0"/>
      <point x="176.0" y="1037.0" type="curve" smooth="yes"/>
      <point x="176.0" y="921.0"/>
      <point x="226.0" y="834.0"/>
      <point x="400.0" y="717.0" type="curve"/>
      <point x="499.0" y="772.0" type="line"/>
      <point x="336.0" y="878.0"/>
      <point x="298.0" y="942.0"/>
      <point x="298.0" y="1026.0" type="curve" smooth="yes"/>
      <point x="298.0" y="1118.0"/>
      <point x="357.0" y="1180.0"/>
      <point x="484.0" y="1180.0" type="curve" smooth="yes"/>
      <point x="598.0" y="1180.0"/>
      <point x="665.0" y="1134.0"/>
      <point x="665.0" y="1025.0" type="curve" smooth="yes"/>
      <point x="665.0" y="921.0"/>
      <point x="577.0" y="853.0"/>
      <point x="430.0" y="780.0" type="curve" smooth="yes"/>
      <point x="209.0" y="669.0"/>
      <point x="91.0" y="600.0"/>
      <point x="91.0" y="410.0" type="curve" smooth="yes"/>
      <point x="91.0" y="171.0"/>
      <point x="292.0" y="83.0"/>
    </contour>
    <contour>
      <point x="783.0" y="-106.0" type="line"/>
      <point x="880.0" y="-37.0" type="line"/>
      <point x="702.0" y="183.0" type="line"/>
      <point x="606.0" y="165.0" type="line"/>
    </contour>
    <contour>
      <point x="662.0" y="122.0" type="line"/>
      <point x="726.0" y="162.0"/>
      <point x="763.0" y="200.0"/>
      <point x="762.0" y="252.0" type="curve" smooth="yes"/>
      <point x="761.0" y="306.0"/>
      <point x="685.0" y="382.0"/>
      <point x="565.0" y="412.0" type="curve"/>
      <point x="482.0" y="350.0" type="line"/>
      <point x="593.0" y="186.0" type="line"/>
    </contour>
    <contour>
      <point x="893.0" y="543.0" type="curve" smooth="yes"/>
      <point x="965.0" y="543.0"/>
      <point x="1039.0" y="553.0"/>
      <point x="1113.0" y="567.0" type="curve"/>
      <point x="1109.0" y="676.0" type="line"/>
      <point x="1032.0" y="661.0"/>
      <point x="964.0" y="650.0"/>
      <point x="900.0" y="650.0" type="curve" smooth="yes"/>
      <point x="820.0" y="650.0"/>
      <point x="700.0" y="672.0"/>
      <point x="537.0" y="757.0" type="curve"/>
      <point x="429.0" y="693.0" type="line"/>
      <point x="647.0" y="575.0"/>
      <point x="793.0" y="543.0"/>
    </contour>
    <contour>
      <point x="869.0" y="1143.0" type="line"/>
      <point x="952.0" y="1143.0" type="line"/>
      <point x="952.0" y="1247.0" type="line"/>
      <point x="869.0" y="1247.0" type="line"/>
    </contour>
  </outline>
</glyph>
<glyph name="l-deva.loclMAR" format="2">
  <advance width="941.0"/>
  <outline>
    <contour>
      <point x="316.0" y="31.0" type="curve"/>
      <point x="412.0" y="107.0" type="line"/>
      <point x="315.0" y="231.0"/>
      <point x="200.0" y="406.0"/>
      <point x="200.0" y="592.0" type="curve" smooth="yes"/>
      <point x="200.0" y="745.0"/>
      <point x="286.0" y="801.0"/>
      <point x="390.0" y="801.0" type="curve" smooth="yes"/>
      <point x="511.0" y="801.0"/>
      <point x="584.0" y="721.0"/>
      <point x="642.0" y="591.0" type="curve"/>
      <point x="679.0" y="687.0" type="line"/>
      <point x="605.0" y="857.0"/>
      <point x="503.0" y="920.0"/>
      <point x="367.0" y="920.0" type="curve" smooth="yes"/>
      <point x="184.0" y="920.0"/>
      <point x="74.0" y="809.0"/>
      <point x="74.0" y="608.0" type="curve" smooth="yes"/>
      <point x="74.0" y="352.0"/>
      <point x="235.0" y="131.0"/>
    </contour>
    <contour>
      <point x="614.0" y="471.0" type="curve"/>
      <point x="728.0" y="498.0" type="line"/>
      <point x="718.0" y="532.0"/>
      <point x="712.0" y="567.0"/>
      <point x="712.0" y="602.0" type="curve" smooth="yes"/>
      <point x="712.0" y="706.0"/>
      <point x="770.0" y="794.0"/>
      <point x="873.0" y="794.0" type="curve" smooth="yes"/>
      <point x="991.0" y="794.0"/>
      <point x="1043.0" y="718.0"/>
      <point x="1087.0" y="559.0" type="curve"/>
      <point x="1151.0" y="635.0" type="line"/>
      <point x="1106.0" y="818.0"/>
      <point x="1016.0" y="912.0"/>
      <point x="856.0" y="912.0" type="curve" smooth="yes"/>
      <point x="701.0" y="912.0"/>
      <point x="588.0" y="771.0"/>
      <point x="588.0" y="607.0" type="curve" smooth="yes"/>
      <point x="588.0" y="560.0"/>
      <point x="597.0" y="514.0"/>
    </contour>
    <contour>
      <point x="-12.0" y="1143.0" type="line"/>
      <point x="971.0" y="1143.0" type="line"/>
      <point x="971.0" y="1247.0" type="line"/>
      <point x="-12.0" y="1247.0" type="line"/>
    </contour>
  </outline>
</glyph>
<glyph name="l_ja-deva" format="2">
  <advance width="2379.0"/>
  <anchor x="2104.0" y="28.0" name="bottom"/>
  <anchor x="2088.0" y="1248.0" name="candra"/>
  <anchor x="1052.0" y="44.0" name="nukta"/>
  <anchor x="2106.0" y="1247.0" name="top"/>
  <outline>
    <contour>
      <point x="1578.0" y="746.0" type="line"/>
      <point x="2117.0" y="746.0" type="line"/>
      <point x="2117.0" y="857.0" type="line"/>
      <point x="1524.0" y="857.0" type="line"/>
    </contour>
    <contour>
      <point x="2039.0" y="0.0" type="line"/>
      <point x="2165.0" y="0.0" type="line"/>
      <point x="2165.0" y="1191.0" type="line"/>
      <point x="2039.0" y="1191.0" type="line"/>
    </contour>
    <contour>
      <point x="316.0" y="31.0" type="curve"/>
      <point x="412.0" y="107.0" type="line"/>
      <point x="315.0" y="231.0"/>
      <point x="200.0" y="406.0"/>
      <point x="200.0" y="592.0" type="curve" smooth="yes"/>
      <point x="200.0" y="745.0"/>
      <point x="286.0" y="801.0"/>
      <point x="390.0" y="801.0" type="curve" smooth="yes"/>
      <point x="511.0" y="801.0"/>
      <point x="584.0" y="721.0"/>
      <point x="642.0" y="591.0" type="curve"/>
      <point x="679.0" y="687.0" type="line"/>
      <point x="605.0" y="857.0"/>
      <point x="503.0" y="920.0"/>
      <point x="367.0" y="920.0" type="curve" smooth="yes"/>
      <point x="184.0" y="920.0"/>
      <point x="74.0" y="809.0"/>
      <point x="74.0" y="608.0" type="curve" smooth="yes"/>
      <point x="74.0" y="352.0"/>
      <point x="235.0" y="131.0"/>
    </contour>
    <contour>
      <point x="949.0" y="1143.0" type="line"/>
      <point x="2392.0" y="1143.0" type="line"/>
      <point x="2392.0" y="1247.0" type="line"/>
      <point x="949.0" y="1247.0" type="line"/>
    </contour>
    <contour>
      <point x="-12.0" y="1143.0" type="line"/>
      <point x="971.0" y="1143.0" type="line"/>
      <point x="971.0" y="1247.0" type="line"/>
      <point x="-12.0" y="1247.0" type="line"/>
    </contour>
    <contour>
      <point x="1603.0" y="792.0" type="curve"/>
      <point x="1523.0" y="857.0" type="line"/>
      <point x="1483.0" y="771.0" type="line"/>
      <point x="1610.0" y="707.0"/>
      <point x="1692.0" y="624.0"/>
      <point x="1692.0" y="485.0" type="curve" smooth="yes"/>
      <point x="1692.0" y="367.0"/>
      <point x="1623.0" y="289.0"/>
      <point x="1487.0" y="288.0" type="curve" smooth="yes"/>
      <point x="1265.0" y="286.0"/>
      <point x="1182.0" y="550.0"/>
      <point x="1154.0" y="657.0" type="curve" smooth="yes"/>
      <point x="1106.0" y="840.0"/>
      <point x="1016.0" y="912.0"/>
      <point x="876.0" y="912.0" type="curve" smooth="yes"/>
      <point x="701.0" y="912.0"/>
      <point x="588.0" y="771.0"/>
      <point x="588.0" y="607.0" type="curve" smooth="yes"/>
      <point x="588.0" y="560.0"/>
      <point x="597.0" y="514.0"/>
      <point x="614.0" y="471.0" type="curve"/>
      <point x="728.0" y="498.0" type="line"/>
      <point x="718.0" y="532.0"/>
      <point x="712.0" y="567.0"/>
      <point x="712.0" y="602.0" type="curve" smooth="yes"/>
      <point x="712.0" y="706.0"/>
      <point x="760.0" y="794.0"/>
      <point x="883.0" y="794.0" type="curve" smooth="yes"/>
      <point x="977.0" y="794.0"/>
      <point x="1015.0" y="746.0"/>
      <point x="1051.0" y="607.0" type="curve" smooth="yes"/>
      <point x="1101.0" y="414.0"/>
      <point x="1191.0" y="170.0"/>
      <point x="1490.0" y="170.0" type="curve" smooth="yes"/>
      <point x="1695.0" y="170.0"/>
      <point x="1818.0" y="290.0"/>
      <point x="1818.0" y="470.0" type="curve" smooth="yes"/>
      <point x="1818.0" y="626.0"/>
      <point x="1740.0" y="719.0"/>
    </contour>
  </outline>
</glyph>
<glyph name="m_na-deva" format="2">
  <advance width="1173.0"/>
  <anchor x="896.0" y="0.0" name="bottom"/>
  <anchor x="747.0" y="1247.0" name="candra"/>
  <anchor x="344.0" y="44.0" name="nukta"/>
  <anchor x="896.0" y="1247.0" name="top"/>
  <outline>
    <contour>
      <point x="552.0" y="-21.0" type="line"/>
      <point x="574.0" y="-1.0"/>
      <point x="582.0" y="18.0"/>
      <point x="583.0" y="37.0" type="curve" smooth="yes"/>
      <point x="584.0" y="57.0"/>
      <point x="576.0" y="77.0"/>
      <point x="563.0" y="96.0" type="curve" smooth="yes"/>
      <point x="494.0" y="194.0" type="line"/>
      <point x="476.0" y="140.0" type="line"/>
      <point x="885.0" y="457.0" type="line"/>
      <point x="840.0" y="541.0" type="line"/>
      <point x="285.0" y="147.0" type="line"/>
      <point x="341.0" y="56.0" type="line"/>
    </contour>
    <component base="ma-deva"/>
  </outline>
</glyph>
<glyph name="n_ca-deva" format="2">
  <advance width="1767.0"/>
  <anchor x="1401.0" y="28.0" name="bottom"/>
  <anchor x="1099.0" y="1248.0" name="candra"/>
  <anchor x="89.0" y="84.0" name="nukta"/>
  <anchor x="1399.0" y="1288.0" name="top"/>
  <outline>
    <contour>
      <point x="256.0" y="347.0" type="line"/>
      <point x="352.0" y="347.0"/>
      <point x="370.0" y="409.0"/>
      <point x="370.0" y="485.0" type="curve" smooth="yes"/>
      <point x="370.0" y="660.0" type="line"/>
      <point x="120.0" y="660.0" type="line"/>
      <point x="120.0" y="548.0" type="line"/>
    </contour>
    <contour>
      <point x="256.0" y="549.0" type="line"/>
      <point x="831.0" y="549.0" type="line"/>
      <point x="831.0" y="661.0" type="line"/>
      <point x="256.0" y="660.0" type="line"/>
    </contour>
    <contour>
      <point x="1117.0" y="210.0" type="curve" smooth="yes"/>
      <point x="1284.0" y="207.0"/>
      <point x="1400.0" y="280.0"/>
      <point x="1495.0" y="401.0" type="curve"/>
      <point x="1473.0" y="526.0" type="line"/>
      <point x="1363.0" y="381.0"/>
      <point x="1266.0" y="316.0"/>
      <point x="1126.0" y="320.0" type="curve" smooth="yes"/>
      <point x="966.0" y="325.0"/>
      <point x="901.0" y="415.0"/>
      <point x="901.0" y="543.0" type="curve" smooth="yes"/>
      <point x="901.0" y="701.0"/>
      <point x="1024.0" y="799.0"/>
      <point x="1202.0" y="791.0" type="curve"/>
      <point x="1172.0" y="852.0" type="line"/>
      <point x="1002.0" y="828.0" type="line"/>
      <point x="863.0" y="798.0"/>
      <point x="770.0" y="692.0"/>
      <point x="770.0" y="535.0" type="curve" smooth="yes"/>
      <point x="770.0" y="359.0"/>
      <point x="883.0" y="214.0"/>
    </contour>
    <contour>
      <point x="616.0" y="790.0" type="line"/>
      <point x="1267.0" y="791.0" type="line"/>
      <point x="1267.0" y="899.0" type="line"/>
      <point x="616.0" y="898.0" type="line"/>
    </contour>
    <contour>
      <point x="1428.0" y="0.0" type="line"/>
      <point x="1554.0" y="0.0" type="line"/>
      <point x="1554.0" y="1193.0" type="line"/>
      <point x="1428.0" y="1193.0" type="line"/>
    </contour>
    <contour>
      <point x="-12.0" y="1143.0" type="line"/>
      <point x="1780.0" y="1143.0" type="line"/>
      <point x="1780.0" y="1247.0" type="line"/>
      <point x="-12.0" y="1247.0" type="line"/>
    </contour>
  </outline>
</glyph>
<glyph name="n_n-deva" format="2">
  <advance width="694.0"/>
  <outline>
    <contour>
      <point x="784.0" y="665.0" type="line"/>
      <point x="183.0" y="348.0" type="line"/>
      <point x="228.0" y="252.0" type="line"/>
      <point x="423.0" y="144.0" type="line"/>
      <point x="500.0" y="184.0"/>
      <point x="490.0" y="244.0"/>
      <point x="458.0" y="305.0" type="curve" smooth="yes"/>
      <point x="410.0" y="392.0" type="line"/>
      <point x="396.0" y="333.0" type="line"/>
      <point x="832.0" y="569.0" type="line"/>
    </contour>
    <contour>
      <point x="161.0" y="918.0" type="line"/>
      <point x="128.0" y="821.0" type="line"/>
      <point x="191.0" y="610.0" type="line"/>
      <point x="279.0" y="584.0"/>
      <point x="310.0" y="635.0"/>
      <point x="329.0" y="703.0" type="curve" smooth="yes"/>
      <point x="356.0" y="800.0" type="line"/>
      <point x="302.0" y="769.0" type="line"/>
      <point x="850.0" y="621.0" type="line"/>
      <point x="867.0" y="725.0" type="line"/>
    </contour>
    <contour>
      <point x="706.0" y="1247.0" type="line"/>
      <point x="-12.0" y="1247.0" type="line"/>
      <point x="-12.0" y="1143.0" type="line"/>
      <point x="706.0" y="1143.0" type="line"/>
    </contour>
  </outline>
</glyph>
<glyph name="n_th_va-deva" format="2">
  <advance width="2323.0"/>
  <anchor x="189.0" y="84.0" name="nukta"/>
  <anchor x="2046.0" y="0.0" name="bottom"/>
  <anchor x="1979.0" y="1247.0" name="candra"/>
  <anchor x="2046.0" y="1247.0" name="top"/>
  <outline>
    <contour>
      <point x="186.0" y="387.0" type="line"/>
      <point x="282.0" y="387.0"/>
      <point x="300.0" y="449.0"/>
      <point x="300.0" y="525.0" type="curve" smooth="yes"/>
      <point x="300.0" y="700.0" type="line"/>
      <point x="50.0" y="700.0" type="line"/>
      <point x="50.0" y="588.0" type="line"/>
    </contour>
    <contour>
      <point x="186.0" y="589.0" type="line"/>
      <point x="741.0" y="589.0" type="line"/>
      <point x="741.0" y="701.0" type="line"/>
      <point x="186.0" y="700.0" type="line"/>
    </contour>
    <contour>
      <point x="-12.0" y="1143.0" type="line"/>
      <point x="591.0" y="1143.0" type="line"/>
      <point x="591.0" y="1247.0" type="line"/>
      <point x="-12.0" y="1247.0" type="line"/>
    </contour>
    <component base="th-deva" xOffset="557.0"/>
    <component base="va-deva" xOffset="1235.0"/>
  </outline>
</glyph>
<glyph name="nine.lf" format="2">
  <advance width="1057.0"/>
  <outline>
    <contour>
      <point x="480.0" y="-25.0" type="curve" smooth="yes"/>
      <point x="751.0" y="-25.0"/>
      <point x="920.0" y="187.0"/>
      <point x="920.0" y="709.0" type="curve" smooth="yes"/>
      <point x="920.0" y="1169.0"/>
      <point x="751.0" y="1370.0"/>
      <point x="486.0" y="1370.0" type="curve" smooth="yes"/>
      <point x="283.0" y="1370.0"/>
      <point x="105.0" y="1190.0"/>
      <point x="105.0" y="946.0" type="curve" smooth="yes"/>
      <point x="105.0" y="679.0"/>
      <point x="246.0" y="510.0"/>
      <point x="473.0" y="510.0" type="curve" smooth="yes"/>
      <point x="587.0" y="510.0"/>
      <point x="710.0" y="575.0"/>
      <point x="790.0" y="681.0" type="curve"/>
      <point x="785.0" y="249.0"/>
      <point x="678.0" y="90.0"/>
      <point x="477.0" y="90.0" type="curve" smooth="yes"/>
      <point x="394.0" y="90.0"/>
      <point x="295.0" y="131.0"/>
      <point x="247.0" y="192.0" type="curve"/>
      <point x="174.0" y="104.0" type="line"/>
      <point x="256.0" y="21.0"/>
      <point x="348.0" y="-25.0"/>
    </contour>
    <contour>
      <point x="494.0" y="616.0" type="curve" smooth="yes"/>
      <point x="316.0" y="616.0"/>
      <point x="235.0" y="767.0"/>
      <point x="235.0" y="946.0" type="curve" smooth="yes"/>
      <point x="235.0" y="1124.0"/>
      <point x="346.0" y="1260.0"/>
      <point x="486.0" y="1260.0" type="curve" smooth="yes"/>
      <point x="678.0" y="1260.0"/>
      <point x="787.0" y="1091.0"/>
      <point x="787.0" y="799.0" type="curve"/>
      <point x="691.0" y="667.0"/>
      <point x="581.0" y="616.0"/>
    </contour>
  </outline>
</glyph>
<glyph name="nine.osf" format="2">
  <advance width="1047.0"/>
  <outline>
    <contour>
      <point x="454.0" y="-200.0" type="curve" smooth="yes"/>
      <point x="719.0" y="-200.0"/>
      <point x="915.0" y="16.0"/>
      <point x="915.0" y="539.0" type="curve" smooth="yes"/>
      <point x="915.0" y="991.0"/>
      <point x="746.0" y="1196.0"/>
      <point x="474.0" y="1196.0" type="curve" smooth="yes"/>
      <point x="267.0" y="1196.0"/>
      <point x="81.0" y="1016.0"/>
      <point x="81.0" y="771.0" type="curve" smooth="yes"/>
      <point x="81.0" y="505.0"/>
      <point x="226.0" y="335.0"/>
      <point x="453.0" y="335.0" type="curve" smooth="yes"/>
      <point x="580.0" y="335.0"/>
      <point x="700.0" y="396.0"/>
      <point x="780.0" y="502.0" type="curve"/>
      <point x="775.0" y="70.0"/>
      <point x="645.0" y="-84.0"/>
      <point x="452.0" y="-84.0" type="curve" smooth="yes"/>
      <point x="368.0" y="-84.0"/>
      <point x="269.0" y="-44.0"/>
      <point x="222.0" y="17.0" type="curve"/>
      <point x="149.0" y="-71.0" type="line"/>
      <point x="230.0" y="-153.0"/>
      <point x="323.0" y="-200.0"/>
    </contour>
    <contour>
      <point x="474.0" y="444.0" type="curve" smooth="yes"/>
      <point x="292.0" y="444.0"/>
      <point x="209.0" y="582.0"/>
      <point x="209.0" y="763.0" type="curve" smooth="yes"/>
      <point x="209.0" y="945.0"/>
      <point x="330.0" y="1085.0"/>
      <point x="475.0" y="1085.0" type="curve" smooth="yes"/>
      <point x="679.0" y="1085.0"/>
      <point x="778.0" y="921.0"/>
      <point x="783.0" y="623.0" type="curve"/>
      <point x="687.0" y="490.0"/>
      <point x="566.0" y="444.0"/>
    </contour>
  </outline>
</glyph>
<glyph name="ph_ra-deva" format="2">
  <advance width="1233.0"/>
  <anchor x="860.0" y="20.0" name="bottom"/>
  <anchor x="860.0" y="1248.0" name="candra"/>
  <anchor x="459.0" y="80.0" name="nukta"/>
  <anchor x="854.0" y="1288.0" name="top"/>
  <outline>
    <contour>
      <point x="196.0" y="-27.0" type="line"/>
      <point x="803.0" y="464.0" type="line"/>
      <point x="751.0" y="535.0" type="line"/>
      <point x="118.0" y="68.0" type="line"/>
    </contour>
    <component base="ph-deva"/>
  </outline>
</glyph>
<glyph name="q_ma-deva" format="2">
  <advance width="2230.0"/>
  <anchor x="1953.0" y="28.0" name="bottom"/>
  <anchor x="1674.0" y="1248.0" name="candra"/>
  <anchor x="1401.0" y="44.0" name="nukta"/>
  <anchor x="1953.0" y="1288.0" name="top"/>
  <outline>
    <contour>
      <point x="722.0" y="0.0" type="line"/>
      <point x="848.0" y="0.0" type="line"/>
      <point x="848.0" y="1196.0" type="line"/>
      <point x="722.0" y="1196.0" type="line"/>
    </contour>
    <contour>
      <point x="410.0" y="223.0" type="curve" smooth="yes"/>
      <point x="557.0" y="223.0"/>
      <point x="695.0" y="288.0"/>
      <point x="778.0" y="392.0" type="curve"/>
      <point x="756.0" y="513.0" type="line"/>
      <point x="683.0" y="406.0"/>
      <point x="559.0" y="332.0"/>
      <point x="418.0" y="332.0" type="curve" smooth="yes"/>
      <point x="283.0" y="332.0"/>
      <point x="209.0" y="405.0"/>
      <point x="209.0" y="563.0" type="curve" smooth="yes"/>
      <point x="209.0" y="728.0"/>
      <point x="299.0" y="798.0"/>
      <point x="440.0" y="803.0" type="curve" smooth="yes"/>
      <point x="542.0" y="807.0"/>
      <point x="647.0" y="787.0"/>
      <point x="769.0" y="734.0" type="curve"/>
      <point x="769.0" y="821.0" type="line"/>
      <point x="671.0" y="883.0"/>
      <point x="552.0" y="915.0"/>
      <point x="440.0" y="915.0" type="curve" smooth="yes"/>
      <point x="208.0" y="915.0"/>
      <point x="79.0" y="797.0"/>
      <point x="79.0" y="568.0" type="curve" smooth="yes"/>
      <point x="79.0" y="372.0"/>
      <point x="192.0" y="223.0"/>
    </contour>
    <contour>
      <point x="1281.0" y="672.0" type="curve"/>
      <point x="1368.0" y="751.0" type="line"/>
      <point x="1323.0" y="823.0"/>
      <point x="1245.0" y="861.0"/>
      <point x="1148.0" y="861.0" type="curve" smooth="yes"/>
      <point x="1024.0" y="861.0"/>
      <point x="915.0" y="805.0"/>
      <point x="815.0" y="683.0" type="curve"/>
      <point x="815.0" y="506.0" type="line"/>
      <point x="936.0" y="670.0"/>
      <point x="1041.0" y="747.0"/>
      <point x="1139.0" y="747.0" type="curve" smooth="yes"/>
      <point x="1207.0" y="747.0"/>
      <point x="1257.0" y="725.0"/>
    </contour>
    <contour>
      <point x="337.0" y="125.0" type="curve" smooth="yes"/>
      <point x="280.0" y="125.0"/>
      <point x="255.0" y="101.0"/>
      <point x="255.0" y="44.0" type="curve" smooth="yes"/>
      <point x="255.0" y="-12.0"/>
      <point x="280.0" y="-36.0"/>
      <point x="337.0" y="-36.0" type="curve" smooth="yes"/>
      <point x="394.0" y="-36.0"/>
      <point x="418.0" y="-12.0"/>
      <point x="418.0" y="44.0" type="curve" smooth="yes"/>
      <point x="418.0" y="101.0"/>
      <point x="394.0" y="125.0"/>
    </contour>
    <contour>
      <point x="1890.0" y="0.0" type="line"/>
      <point x="2016.0" y="0.0" type="line"/>
      <point x="2016.0" y="1177.0" type="line"/>
      <point x="1890.0" y="1177.0" type="line"/>
    </contour>
    <contour>
      <point x="1292.0" y="308.0" type="line"/>
      <point x="1382.0" y="311.0"/>
      <point x="1400.0" y="360.0"/>
      <point x="1400.0" y="418.0" type="curve" smooth="yes"/>
      <point x="1400.0" y="608.0" type="line"/>
      <point x="1290.0" y="608.0" type="line"/>
      <point x="1122.0" y="588.0" type="line"/>
      <point x="1122.0" y="498.0" type="line"/>
    </contour>
    <contour>
      <point x="1274.0" y="447.0" type="line"/>
      <point x="1400.0" y="558.0" type="line"/>
      <point x="1400.0" y="1164.0" type="line"/>
      <point x="1274.0" y="1163.0" type="line"/>
    </contour>
    <contour>
      <point x="1280.0" y="489.0" type="line"/>
      <point x="1984.0" y="489.0" type="line"/>
      <point x="1984.0" y="600.0" type="line"/>
      <point x="1280.0" y="600.0" type="line"/>
    </contour>
    <contour>
      <point x="-12.0" y="1143.0" type="line"/>
      <point x="2243.0" y="1143.0" type="line"/>
      <point x="2243.0" y="1247.0" type="line"/>
      <point x="-12.0" y="1247.0" type="line"/>
    </contour>
  </outline>
</glyph>
<glyph name="q_pha-deva" format="2">
  <advance width="2658.0"/>
  <anchor x="1953.0" y="28.0" name="bottom"/>
  <anchor x="1580.0" y="1248.0" name="candra"/>
  <anchor x="1241.0" y="171.0" name="nukta"/>
  <anchor x="1961.0" y="1247.0" name="top"/>
  <outline>
    <contour>
      <point x="722.0" y="0.0" type="line"/>
      <point x="848.0" y="0.0" type="line"/>
      <point x="848.0" y="1196.0" type="line"/>
      <point x="722.0" y="1196.0" type="line"/>
    </contour>
    <contour>
      <point x="410.0" y="223.0" type="curve" smooth="yes"/>
      <point x="557.0" y="223.0"/>
      <point x="695.0" y="288.0"/>
      <point x="778.0" y="392.0" type="curve"/>
      <point x="756.0" y="513.0" type="line"/>
      <point x="683.0" y="406.0"/>
      <point x="559.0" y="332.0"/>
      <point x="418.0" y="332.0" type="curve" smooth="yes"/>
      <point x="283.0" y="332.0"/>
      <point x="209.0" y="405.0"/>
      <point x="209.0" y="563.0" type="curve" smooth="yes"/>
      <point x="209.0" y="728.0"/>
      <point x="299.0" y="798.0"/>
      <point x="440.0" y="803.0" type="curve" smooth="yes"/>
      <point x="542.0" y="807.0"/>
      <point x="647.0" y="787.0"/>
      <point x="769.0" y="734.0" type="curve"/>
      <point x="769.0" y="821.0" type="line"/>
      <point x="671.0" y="883.0"/>
      <point x="552.0" y="915.0"/>
      <point x="440.0" y="915.0" type="curve" smooth="yes"/>
      <point x="208.0" y="915.0"/>
      <point x="79.0" y="797.0"/>
      <point x="79.0" y="568.0" type="curve" smooth="yes"/>
      <point x="79.0" y="372.0"/>
      <point x="192.0" y="223.0"/>
    </contour>
    <contour>
      <point x="1281.0" y="672.0" type="curve"/>
      <point x="1368.0" y="751.0" type="line"/>
      <point x="1323.0" y="823.0"/>
      <point x="1245.0" y="861.0"/>
      <point x="1148.0" y="861.0" type="curve" smooth="yes"/>
      <point x="1024.0" y="861.0"/>
      <point x="915.0" y="805.0"/>
      <point x="815.0" y="683.0" type="curve"/>
      <point x="815.0" y="506.0" type="line"/>
      <point x="936.0" y="670.0"/>
      <point x="1041.0" y="747.0"/>
      <point x="1139.0" y="747.0" type="curve" smooth="yes"/>
      <point x="1207.0" y="747.0"/>
      <point x="1257.0" y="725.0"/>
    </contour>
    <contour>
      <point x="337.0" y="125.0" type="curve" smooth="yes"/>
      <point x="280.0" y="125.0"/>
      <point x="255.0" y="101.0"/>
      <point x="255.0" y="44.0" type="curve" smooth="yes"/>
      <point x="255.0" y="-12.0"/>
      <point x="280.0" y="-36.0"/>
      <point x="337.0" y="-36.0" type="curve" smooth="yes"/>
      <point x="394.0" y="-36.0"/>
      <point x="418.0" y="-12.0"/>
      <point x="418.0" y="44.0" type="curve" smooth="yes"/>
      <point x="418.0" y="101.0"/>
      <point x="394.0" y="125.0"/>
    </contour>
    <contour>
      <point x="-12.0" y="1143.0" type="line"/>
      <point x="2290.0" y="1143.0" type="line"/>
      <point x="2290.0" y="1247.0" type="line"/>
      <point x="-12.0" y="1247.0" type="line"/>
    </contour>
    <contour>
      <point x="1582.0" y="332.0" type="curve" smooth="yes"/>
      <point x="1697.0" y="332.0"/>
      <point x="1846.0" y="391.0"/>
      <point x="1936.0" y="515.0" type="curve"/>
      <point x="1920.0" y="639.0" type="line"/>
      <point x="1822.0" y="507.0"/>
      <point x="1698.0" y="447.0"/>
      <point x="1588.0" y="446.0" type="curve" smooth="yes"/>
      <point x="1437.0" y="445.0"/>
      <point x="1385.0" y="534.0"/>
      <point x="1385.0" y="683.0" type="curve" smooth="yes"/>
      <point x="1385.0" y="1186.0" type="line"/>
      <point x="1258.0" y="1186.0" type="line"/>
      <point x="1258.0" y="700.0" type="line" smooth="yes"/>
      <point x="1258.0" y="457.0"/>
      <point x="1369.0" y="332.0"/>
    </contour>
    <contour>
      <point x="1890.0" y="0.0" type="line"/>
      <point x="2016.0" y="0.0" type="line"/>
      <point x="2016.0" y="1191.0" type="line"/>
      <point x="1890.0" y="1191.0" type="line"/>
    </contour>
    <contour>
      <point x="2436.0" y="168.0" type="line"/>
      <point x="2543.0" y="300.0"/>
      <point x="2582.0" y="440.0"/>
      <point x="2582.0" y="555.0" type="curve" smooth="yes"/>
      <point x="2582.0" y="736.0"/>
      <point x="2481.0" y="861.0"/>
      <point x="2316.0" y="861.0" type="curve" smooth="yes"/>
      <point x="2193.0" y="861.0"/>
      <point x="2083.0" y="805.0"/>
      <point x="1983.0" y="683.0" type="curve"/>
      <point x="1975.0" y="509.0" type="line"/>
      <point x="2097.0" y="669.0"/>
      <point x="2205.0" y="747.0"/>
      <point x="2308.0" y="747.0" type="curve" smooth="yes"/>
      <point x="2412.0" y="747.0"/>
      <point x="2464.0" y="676.0"/>
      <point x="2464.0" y="560.0" type="curve" smooth="yes"/>
      <point x="2464.0" y="468.0"/>
      <point x="2427.0" y="357.0"/>
      <point x="2337.0" y="236.0" type="curve"/>
    </contour>
    <contour>
      <point x="1081.0" y="1143.0" type="line"/>
      <point x="2671.0" y="1143.0" type="line"/>
      <point x="2671.0" y="1247.0" type="line"/>
      <point x="1081.0" y="1247.0" type="line"/>
    </contour>
  </outline>
</glyph>
<glyph name="q_qa-deva" format="2">
  <advance width="2682.0"/>
  <anchor x="785.0" y="28.0" name="bottom"/>
  <anchor x="784.0" y="1247.0" name="candra"/>
  <anchor x="337.0" y="44.0" name="nukta"/>
  <anchor x="1963.0" y="1247.0" name="top"/>
  <outline>
    <contour>
      <point x="-12.0" y="1143.0" type="line"/>
      <point x="1214.0" y="1143.0" type="line"/>
      <point x="1214.0" y="1247.0" type="line"/>
      <point x="-12.0" y="1247.0" type="line"/>
    </contour>
    <contour>
      <point x="1189.0" y="1143.0" type="line"/>
      <point x="2695.0" y="1143.0" type="line"/>
      <point x="2695.0" y="1247.0" type="line"/>
      <point x="1189.0" y="1247.0" type="line"/>
    </contour>
    <contour>
      <point x="722.0" y="0.0" type="line"/>
      <point x="848.0" y="0.0" type="line"/>
      <point x="848.0" y="1196.0" type="line"/>
      <point x="722.0" y="1196.0" type="line"/>
    </contour>
    <contour>
      <point x="1913.0" y="0.0" type="line"/>
      <point x="2039.0" y="0.0" type="line"/>
      <point x="2039.0" y="1196.0" type="line"/>
      <point x="1913.0" y="1196.0" type="line"/>
    </contour>
    <contour>
      <point x="410.0" y="223.0" type="curve" smooth="yes"/>
      <point x="557.0" y="223.0"/>
      <point x="695.0" y="288.0"/>
      <point x="778.0" y="392.0" type="curve"/>
      <point x="756.0" y="513.0" type="line"/>
      <point x="683.0" y="406.0"/>
      <point x="559.0" y="332.0"/>
      <point x="418.0" y="332.0" type="curve" smooth="yes"/>
      <point x="283.0" y="332.0"/>
      <point x="209.0" y="405.0"/>
      <point x="209.0" y="563.0" type="curve" smooth="yes"/>
      <point x="209.0" y="728.0"/>
      <point x="299.0" y="798.0"/>
      <point x="440.0" y="803.0" type="curve" smooth="yes"/>
      <point x="542.0" y="808.0"/>
      <point x="647.0" y="787.0"/>
      <point x="769.0" y="734.0" type="curve"/>
      <point x="769.0" y="821.0" type="line"/>
      <point x="671.0" y="883.0"/>
      <point x="552.0" y="915.0"/>
      <point x="440.0" y="915.0" type="curve" smooth="yes"/>
      <point x="208.0" y="915.0"/>
      <point x="79.0" y="797.0"/>
      <point x="79.0" y="568.0" type="curve" smooth="yes"/>
      <point x="79.0" y="372.0"/>
      <point x="192.0" y="223.0"/>
    </contour>
    <contour>
      <point x="1601.0" y="223.0" type="curve" smooth="yes"/>
      <point x="1748.0" y="223.0"/>
      <point x="1886.0" y="288.0"/>
      <point x="1969.0" y="392.0" type="curve"/>
      <point x="1947.0" y="513.0" type="line"/>
      <point x="1874.0" y="406.0"/>
      <point x="1750.0" y="332.0"/>
      <point x="1609.0" y="332.0" type="curve" smooth="yes"/>
      <point x="1474.0" y="332.0"/>
      <point x="1400.0" y="405.0"/>
      <point x="1400.0" y="563.0" type="curve" smooth="yes"/>
      <point x="1400.0" y="728.0"/>
      <point x="1490.0" y="797.0"/>
      <point x="1631.0" y="803.0" type="curve" smooth="yes"/>
      <point x="1733.0" y="807.0"/>
      <point x="1838.0" y="787.0"/>
      <point x="1960.0" y="734.0" type="curve"/>
      <point x="1960.0" y="821.0" type="line"/>
      <point x="1862.0" y="883.0"/>
      <point x="1743.0" y="915.0"/>
      <point x="1631.0" y="915.0" type="curve" smooth="yes"/>
      <point x="1399.0" y="915.0"/>
      <point x="1270.0" y="797.0"/>
      <point x="1270.0" y="568.0" type="curve" smooth="yes"/>
      <point x="1270.0" y="372.0"/>
      <point x="1383.0" y="223.0"/>
    </contour>
    <contour>
      <point x="1281.0" y="672.0" type="curve"/>
      <point x="1368.0" y="751.0" type="line"/>
      <point x="1323.0" y="823.0"/>
      <point x="1245.0" y="861.0"/>
      <point x="1148.0" y="861.0" type="curve" smooth="yes"/>
      <point x="1024.0" y="861.0"/>
      <point x="915.0" y="805.0"/>
      <point x="815.0" y="683.0" type="curve"/>
      <point x="815.0" y="506.0" type="line"/>
      <point x="936.0" y="670.0"/>
      <point x="1041.0" y="747.0"/>
      <point x="1139.0" y="747.0" type="curve" smooth="yes"/>
      <point x="1207.0" y="747.0"/>
      <point x="1257.0" y="725.0"/>
    </contour>
    <contour>
      <point x="2458.0" y="168.0" type="line"/>
      <point x="2566.0" y="300.0"/>
      <point x="2602.0" y="440.0"/>
      <point x="2604.0" y="555.0" type="curve" smooth="yes"/>
      <point x="2607.0" y="754.0"/>
      <point x="2503.0" y="861.0"/>
      <point x="2339.0" y="861.0" type="curve" smooth="yes"/>
      <point x="2215.0" y="861.0"/>
      <point x="2106.0" y="805.0"/>
      <point x="2006.0" y="683.0" type="curve"/>
      <point x="2006.0" y="506.0" type="line"/>
      <point x="2127.0" y="670.0"/>
      <point x="2232.0" y="747.0"/>
      <point x="2330.0" y="747.0" type="curve" smooth="yes"/>
      <point x="2434.0" y="747.0"/>
      <point x="2494.0" y="696.0"/>
      <point x="2488.0" y="562.0" type="curve" smooth="yes"/>
      <point x="2484.0" y="470.0"/>
      <point x="2454.0" y="361.0"/>
      <point x="2363.0" y="240.0" type="curve"/>
    </contour>
    <contour>
      <point x="337.0" y="125.0" type="curve" smooth="yes"/>
      <point x="280.0" y="125.0"/>
      <point x="255.0" y="101.0"/>
      <point x="255.0" y="44.0" type="curve" smooth="yes"/>
      <point x="255.0" y="-12.0"/>
      <point x="280.0" y="-36.0"/>
      <point x="337.0" y="-36.0" type="curve" smooth="yes"/>
      <point x="394.0" y="-36.0"/>
      <point x="418.0" y="-12.0"/>
      <point x="418.0" y="44.0" type="curve" smooth="yes"/>
      <point x="418.0" y="101.0"/>
      <point x="394.0" y="125.0"/>
    </contour>
    <contour>
      <point x="1528.0" y="125.0" type="curve" smooth="yes"/>
      <point x="1471.0" y="125.0"/>
      <point x="1446.0" y="101.0"/>
      <point x="1446.0" y="44.0" type="curve" smooth="yes"/>
      <point x="1446.0" y="-12.0"/>
      <point x="1471.0" y="-36.0"/>
      <point x="1528.0" y="-36.0" type="curve" smooth="yes"/>
      <point x="1585.0" y="-36.0"/>
      <point x="1609.0" y="-12.0"/>
      <point x="1609.0" y="44.0" type="curve" smooth="yes"/>
      <point x="1609.0" y="101.0"/>
      <point x="1585.0" y="125.0"/>
    </contour>
  </outline>
</glyph>
<glyph name="reph_candraBindu-deva" format="2">
  <advance width="540.0"/>
  <anchor x="287.0" y="1247.0" name="_top"/>
  <anchor x="437.028" y="1771.0" name="top"/>
  <outline>
    <contour>
      <point x="292.0" y="1207.0" type="curve"/>
      <point x="329.0" y="1233.0" type="line"/>
      <point x="291.0" y="1285.0"/>
      <point x="273.0" y="1350.0"/>
      <point x="273.0" y="1413.0" type="curve" smooth="yes"/>
      <point x="273.0" y="1536.0"/>
      <point x="343.0" y="1661.0"/>
      <point x="470.0" y="1661.0" type="curve" smooth="yes"/>
      <point x="540.0" y="1661.0"/>
      <point x="602.0" y="1637.0"/>
      <point x="649.0" y="1610.0" type="curve"/>
      <point x="682.0" y="1708.0" type="line"/>
      <point x="629.0" y="1746.0"/>
      <point x="543.0" y="1771.0"/>
      <point x="457.0" y="1771.0" type="curve" smooth="yes"/>
      <point x="294.0" y="1771.0"/>
      <point x="175.0" y="1649.0"/>
      <point x="175.0" y="1478.0" type="curve" smooth="yes"/>
      <point x="175.0" y="1390.0"/>
      <point x="205.0" y="1297.0"/>
    </contour>
    <component base="candraBindu-deva" xScale="0.64684" yScale="0.64684" xOffset="342.0" yOffset="422.0"/>
  </outline>
</glyph>
<glyph name="ringcomb.cap" format="2">
  <anchor x="191.0" y="1346.0" name="_top"/>
  <anchor x="191.0" y="1783.0" name="top"/>
  <outline>
    <contour>
      <point x="191.0" y="1433.0" type="curve" smooth="yes"/>
      <point x="293.0" y="1433.0"/>
      <point x="372.0" y="1500.0"/>
      <point x="372.0" y="1608.0" type="curve" smooth="yes"/>
      <point x="372.0" y="1713.0"/>
      <point x="293.0" y="1783.0"/>
      <point x="191.0" y="1783.0" type="curve" smooth="yes"/>
      <point x="86.0" y="1783.0"/>
      <point x="10.0" y="1713.0"/>
      <point x="10.0" y="1608.0" type="curve" smooth="yes"/>
      <point x="10.0" y="1500.0"/>
      <point x="86.0" y="1433.0"/>
    </contour>
    <contour>
      <point x="191.0" y="1498.0" type="curve" smooth="yes"/>
      <point x="134.0" y="1498.0"/>
      <point x="90.0" y="1537.0"/>
      <point x="90.0" y="1608.0" type="curve" smooth="yes"/>
      <point x="90.0" y="1674.0"/>
      <point x="134.0" y="1716.0"/>
      <point x="191.0" y="1716.0" type="curve" smooth="yes"/>
      <point x="244.0" y="1716.0"/>
      <point x="290.0" y="1674.0"/>
      <point x="290.0" y="1608.0" type="curve" smooth="yes"/>
      <point x="290.0" y="1537.0"/>
      <point x="244.0" y="1498.0"/>
    </contour>
  </outline>
</glyph>
<glyph name="seven.osf" format="2">
  <advance width="989.0"/>
  <outline>
    <contour>
      <point x="348.0" y="-149.0" type="curve"/>
      <point x="491.0" y="-149.0" type="line"/>
      <point x="507.0" y="368.0"/>
      <point x="581.0" y="683.0"/>
      <point x="888.0" y="1089.0" type="curve"/>
      <point x="888.0" y="1173.0" type="line"/>
      <point x="90.0" y="1173.0" type="line"/>
      <point x="90.0" y="1053.0" type="line"/>
      <point x="729.0" y="1053.0" type="line"/>
      <point x="473.0" y="689.0"/>
      <point x="367.0" y="362.0"/>
    </contour>
  </outline>
</glyph>
<glyph name="seven.tf" format="2">
  <advance width="1003.0"/>
  <outline>
    <contour>
      <point x="371.0" y="-149.0" type="curve"/>
      <point x="515.0" y="-149.0" type="line"/>
      <point x="531.0" y="364.0"/>
      <point x="606.0" y="684.0"/>
      <point x="917.0" y="1089.0" type="curve"/>
      <point x="917.0" y="1173.0" type="line"/>
      <point x="90.0" y="1173.0" type="line"/>
      <point x="90.0" y="1053.0" type="line"/>
      <point x="757.0" y="1053.0" type="line"/>
      <point x="497.0" y="690.0"/>
      <point x="388.0" y="360.0"/>
    </contour>
  </outline>
</glyph>
<glyph name="six.lf" format="2">
  <advance width="1057.0"/>
  <outline>
    <contour>
      <point x="568.0" y="-25.0" type="curve" smooth="yes"/>
      <point x="771.0" y="-25.0"/>
      <point x="943.0" y="148.0"/>
      <point x="943.0" y="393.0" type="curve" smooth="yes"/>
      <point x="943.0" y="680.0"/>
      <point x="800.0" y="832.0"/>
      <point x="573.0" y="832.0" type="curve" smooth="yes"/>
      <point x="461.0" y="832.0"/>
      <point x="343.0" y="765.0"/>
      <point x="258.0" y="661.0" type="curve"/>
      <point x="265.0" y="1108.0"/>
      <point x="428.0" y="1254.0"/>
      <point x="621.0" y="1254.0" type="curve" smooth="yes"/>
      <point x="703.0" y="1254.0"/>
      <point x="783.0" y="1227.0"/>
      <point x="838.0" y="1159.0" type="curve"/>
      <point x="916.0" y="1246.0" type="line"/>
      <point x="846.0" y="1325.0"/>
      <point x="751.0" y="1370.0"/>
      <point x="617.0" y="1370.0" type="curve" smooth="yes"/>
      <point x="360.0" y="1370.0"/>
      <point x="126.0" y="1170.0"/>
      <point x="126.0" y="630.0" type="curve" smooth="yes"/>
      <point x="126.0" y="213.0"/>
      <point x="309.0" y="-25.0"/>
    </contour>
    <contour>
      <point x="568.0" y="86.0" type="curve" smooth="yes"/>
      <point x="383.0" y="86.0"/>
      <point x="281.0" y="274.0"/>
      <point x="261.0" y="542.0" type="curve"/>
      <point x="357.0" y="674.0"/>
      <point x="467.0" y="725.0"/>
      <point x="553.0" y="725.0" type="curve" smooth="yes"/>
      <point x="729.0" y="725.0"/>
      <point x="811.0" y="591.0"/>
      <point x="811.0" y="393.0" type="curve" smooth="yes"/>
      <point x="811.0" y="215.0"/>
      <point x="707.0" y="86.0"/>
    </contour>
  </outline>
</glyph>
<glyph name="six.tf" format="2">
  <advance width="1003.0"/>
  <outline>
    <contour>
      <point x="544.0" y="-25.0" type="curve" smooth="yes"/>
      <point x="748.0" y="-25.0"/>
      <point x="919.0" y="152.0"/>
      <point x="919.0" y="397.0" type="curve" smooth="yes"/>
      <point x="919.0" y="684.0"/>
      <point x="776.0" y="828.0"/>
      <point x="549.0" y="828.0" type="curve" smooth="yes"/>
      <point x="437.0" y="828.0"/>
      <point x="320.0" y="764.0"/>
      <point x="234.0" y="659.0" type="curve"/>
      <point x="241.0" y="1107.0"/>
      <point x="405.0" y="1254.0"/>
      <point x="597.0" y="1254.0" type="curve" smooth="yes"/>
      <point x="680.0" y="1254.0"/>
      <point x="760.0" y="1224.0"/>
      <point x="814.0" y="1157.0" type="curve"/>
      <point x="892.0" y="1244.0" type="line"/>
      <point x="822.0" y="1322.0"/>
      <point x="727.0" y="1370.0"/>
      <point x="593.0" y="1370.0" type="curve" smooth="yes"/>
      <point x="337.0" y="1370.0"/>
      <point x="102.0" y="1170.0"/>
      <point x="102.0" y="629.0" type="curve" smooth="yes"/>
      <point x="102.0" y="213.0"/>
      <point x="285.0" y="-25.0"/>
    </contour>
    <contour>
      <point x="545.0" y="86.0" type="curve" smooth="yes"/>
      <point x="359.0" y="86.0"/>
      <point x="257.0" y="273.0"/>
      <point x="238.0" y="542.0" type="curve"/>
      <point x="333.0" y="673.0"/>
      <point x="443.0" y="721.0"/>
      <point x="529.0" y="721.0" type="curve" smooth="yes"/>
      <point x="705.0" y="721.0"/>
      <point x="787.0" y="595.0"/>
      <point x="787.0" y="397.0" type="curve" smooth="yes"/>
      <point x="787.0" y="219.0"/>
      <point x="683.0" y="86.0"/>
    </contour>
  </outline>
</glyph>
<glyph name="th_na-deva" format="2">
  <advance width="1209.0"/>
  <anchor x="932.0" y="0.0" name="bottom"/>
  <anchor x="861.0" y="1247.0" name="candra"/>
  <anchor x="202.0" y="111.0" name="nukta"/>
  <anchor x="932.0" y="1247.0" name="top"/>
  <outline>
    <contour>
      <point x="552.0" y="-83.0" type="line"/>
      <point x="574.0" y="-63.0"/>
      <point x="582.0" y="-44.0"/>
      <point x="583.0" y="-25.0" type="curve" smooth="yes"/>
      <point x="584.0" y="-5.0"/>
      <point x="576.0" y="15.0"/>
      <point x="563.0" y="34.0" type="curve" smooth="yes"/>
      <point x="494.0" y="132.0" type="line"/>
      <point x="476.0" y="78.0" type="line"/>
      <point x="885.0" y="395.0" type="line"/>
      <point x="840.0" y="479.0" type="line"/>
      <point x="285.0" y="85.0" type="line"/>
      <point x="341.0" y="-6.0" type="line"/>
    </contour>
    <component base="tha-deva"/>
  </outline>
</glyph>
<glyph name="two.lf" format="2">
  <advance width="1013.0"/>
  <outline>
    <contour>
      <point x="87.0" y="0.0" type="line"/>
      <point x="904.0" y="0.0" type="line"/>
      <point x="904.0" y="119.0" type="line"/>
      <point x="509.0" y="119.0" type="line"/>
      <point x="439.0" y="119.0"/>
      <point x="360.0" y="113.0"/>
      <point x="290.0" y="108.0" type="curve"/>
      <point x="617.0" y="457.0"/>
      <point x="844.0" y="749.0"/>
      <point x="844.0" y="1001.0" type="curve" smooth="yes"/>
      <point x="844.0" y="1228.0"/>
      <point x="703.0" y="1370.0"/>
      <point x="466.0" y="1370.0" type="curve" smooth="yes"/>
      <point x="304.0" y="1370.0"/>
      <point x="188.0" y="1296.0"/>
      <point x="78.0" y="1175.0" type="curve"/>
      <point x="160.0" y="1094.0" type="line"/>
      <point x="236.0" y="1186.0"/>
      <point x="337.0" y="1258.0"/>
      <point x="449.0" y="1258.0" type="curve" smooth="yes"/>
      <point x="630.0" y="1258.0"/>
      <point x="710.0" y="1150.0"/>
      <point x="710.0" y="995.0" type="curve" smooth="yes"/>
      <point x="710.0" y="777.0"/>
      <point x="493.0" y="493.0"/>
      <point x="87.0" y="82.0" type="curve"/>
    </contour>
  </outline>
</glyph>
<glyph name="two.osf" format="2">
  <advance width="1008.0"/>
  <outline>
    <contour>
      <point x="99.0" y="0.0" type="line"/>
      <point x="898.0" y="0.0" type="line"/>
      <point x="898.0" y="119.0" type="line"/>
      <point x="532.0" y="119.0" type="line"/>
      <point x="462.0" y="119.0"/>
      <point x="385.0" y="113.0"/>
      <point x="313.0" y="108.0" type="curve"/>
      <point x="624.0" y="399.0"/>
      <point x="838.0" y="601.0"/>
      <point x="838.0" y="829.0" type="curve" smooth="yes"/>
      <point x="838.0" y="1058.0"/>
      <point x="708.0" y="1196.0"/>
      <point x="465.0" y="1196.0" type="curve" smooth="yes"/>
      <point x="301.0" y="1196.0"/>
      <point x="178.0" y="1113.0"/>
      <point x="88.0" y="1004.0" type="curve"/>
      <point x="169.0" y="926.0" type="line"/>
      <point x="239.0" y="1011.0"/>
      <point x="337.0" y="1084.0"/>
      <point x="452.0" y="1084.0" type="curve" smooth="yes"/>
      <point x="634.0" y="1084.0"/>
      <point x="706.0" y="978.0"/>
      <point x="706.0" y="822.0" type="curve" smooth="yes"/>
      <point x="706.0" y="626.0"/>
      <point x="503.0" y="422.0"/>
      <point x="99.0" y="82.0" type="curve"/>
    </contour>
  </outline>
</glyph>
<glyph name="two.tf" format="2">
  <advance width="1003.0"/>
  <outline>
    <contour>
      <point x="83.0" y="0.0" type="line"/>
      <point x="910.0" y="0.0" type="line"/>
      <point x="910.0" y="119.0" type="line"/>
      <point x="520.0" y="119.0" type="line"/>
      <point x="451.0" y="119.0"/>
      <point x="372.0" y="113.0"/>
      <point x="300.0" y="108.0" type="curve"/>
      <point x="612.0" y="399.0"/>
      <point x="839.0" y="606.0"/>
      <point x="839.0" y="834.0" type="curve" smooth="yes"/>
      <point x="839.0" y="1058.0"/>
      <point x="698.0" y="1196.0"/>
      <point x="462.0" y="1196.0" type="curve" smooth="yes"/>
      <point x="297.0" y="1196.0"/>
      <point x="184.0" y="1121.0"/>
      <point x="80.0" y="1004.0" type="curve"/>
      <point x="161.0" y="926.0" type="line"/>
      <point x="238.0" y="1019.0"/>
      <point x="334.0" y="1083.0"/>
      <point x="448.0" y="1083.0" type="curve" smooth="yes"/>
      <point x="624.0" y="1083.0"/>
      <point x="705.0" y="979.0"/>
      <point x="705.0" y="829.0" type="curve" smooth="yes"/>
      <point x="705.0" y="633.0"/>
      <point x="487.0" y="422.0"/>
      <point x="83.0" y="82.0" type="curve"/>
    </contour>
  </outline>
</glyph>
<glyph name="v_ha-deva" format="2">
  <advance width="1585.0"/>
  <anchor x="1375.0" y="-172.0" name="bottom"/>
  <anchor x="1266.0" y="1247.0" name="candra"/>
  <anchor x="723.0" y="-187.0" name="nukta"/>
  <anchor x="1348.0" y="1247.0" name="top"/>
  <outline>
    <contour>
      <point x="410.0" y="222.0" type="curve" smooth="yes"/>
      <point x="547.0" y="222.0"/>
      <point x="721.0" y="283.0"/>
      <point x="836.0" y="437.0" type="curve"/>
      <point x="819.0" y="579.0" type="line"/>
      <point x="752.0" y="460.0"/>
      <point x="581.0" y="332.0"/>
      <point x="413.0" y="332.0" type="curve" smooth="yes"/>
      <point x="280.0" y="332.0"/>
      <point x="209.0" y="405.0"/>
      <point x="209.0" y="560.0" type="curve" smooth="yes"/>
      <point x="209.0" y="775.0"/>
      <point x="348.0" y="811.0"/>
      <point x="467.0" y="812.0" type="curve" smooth="yes"/>
      <point x="565.0" y="813.0"/>
      <point x="696.0" y="790.0"/>
      <point x="809.0" y="713.0" type="curve"/>
      <point x="851.0" y="806.0" type="line"/>
      <point x="736.0" y="887.0"/>
      <point x="587.0" y="920.0"/>
      <point x="467.0" y="920.0" type="curve" smooth="yes"/>
      <point x="301.0" y="920.0"/>
      <point x="79.0" y="869.0"/>
      <point x="79.0" y="563.0" type="curve" smooth="yes"/>
      <point x="79.0" y="368.0"/>
      <point x="182.0" y="223.0"/>
    </contour>
    <contour>
      <point x="-12.0" y="1143.0" type="line"/>
      <point x="620.0" y="1143.0" type="line"/>
      <point x="620.0" y="1247.0" type="line"/>
      <point x="-12.0" y="1247.0" type="line"/>
    </contour>
    <component base="ha-deva" xOffset="596.0"/>
  </outline>
</glyph>
<glyph name="va_ra-deva" format="2">
  <advance width="1088.0"/>
  <anchor x="811.0" y="0.0" name="bottom"/>
  <anchor x="744.0" y="1247.0" name="candra"/>
  <anchor x="106.0" y="75.0" name="nukta"/>
  <anchor x="811.0" y="1247.0" name="top"/>
  <outline>
    <contour>
      <point x="242.0" y="-35.0" type="line"/>
      <point x="750.0" y="334.0" type="line"/>
      <point x="717.0" y="403.0" type="line"/>
      <point x="169.0" y="62.0" type="line"/>
    </contour>
    <component base="va-deva"/>
  </outline>
</glyph>
<glyph name="y_na-deva" format="2">
  <advance width="1139.0"/>
  <anchor x="863.0" y="0.0" name="bottom"/>
  <anchor x="777.0" y="1247.0" name="candra"/>
  <anchor x="196.0" y="64.0" name="nukta"/>
  <anchor x="863.0" y="1247.0" name="top"/>
  <outline>
    <contour>
      <point x="478.0" y="-74.0" type="line"/>
      <point x="500.0" y="-54.0"/>
      <point x="508.0" y="-35.0"/>
      <point x="509.0" y="-16.0" type="curve" smooth="yes"/>
      <point x="510.0" y="4.0"/>
      <point x="502.0" y="24.0"/>
      <point x="489.0" y="43.0" type="curve" smooth="yes"/>
      <point x="420.0" y="141.0" type="line"/>
      <point x="402.0" y="87.0" type="line"/>
      <point x="859.0" y="437.0" type="line"/>
      <point x="814.0" y="521.0" type="line"/>
      <point x="211.0" y="94.0" type="line"/>
      <point x="267.0" y="3.0" type="line"/>
    </contour>
    <component base="ya-deva"/>
  </outline>
</glyph>
<glyph name="y_ra-deva" format="2">
  <advance width="619.0"/>
  <anchor x="449.0" y="50.0" name="nukta"/>
  <outline>
    <contour>
      <point x="256.0" y="3.0" type="line"/>
      <point x="757.0" y="378.0" type="line"/>
      <point x="732.0" y="455.0" type="line"/>
      <point x="182.0" y="100.0" type="line"/>
    </contour>
    <component base="y-deva"/>
  </outline>
</glyph>
<glyph name="zero.osf" format="2">
  <advance width="1047.0"/>
  <outline>
    <contour>
      <point x="517.0" y="-25.0" type="curve" smooth="yes"/>
      <point x="772.0" y="-25.0"/>
      <point x="925.0" y="176.0"/>
      <point x="925.0" y="588.0" type="curve" smooth="yes"/>
      <point x="925.0" y="998.0"/>
      <point x="772.0" y="1196.0"/>
      <point x="517.0" y="1196.0" type="curve" smooth="yes"/>
      <point x="263.0" y="1196.0"/>
      <point x="110.0" y="998.0"/>
      <point x="110.0" y="588.0" type="curve" smooth="yes"/>
      <point x="110.0" y="176.0"/>
      <point x="263.0" y="-25.0"/>
    </contour>
    <contour>
      <point x="517.0" y="87.0" type="curve" smooth="yes"/>
      <point x="345.0" y="87.0"/>
      <point x="244.0" y="270.0"/>
      <point x="244.0" y="588.0" type="curve" smooth="yes"/>
      <point x="244.0" y="905.0"/>
      <point x="345.0" y="1083.0"/>
      <point x="517.0" y="1083.0" type="curve" smooth="yes"/>
      <point x="690.0" y="1083.0"/>
      <point x="790.0" y="905.0"/>
      <point x="790.0" y="588.0" type="curve" smooth="yes"/>
      <point x="790.0" y="270.0"/>
      <point x="690.0" y="87.0"/>
    </contour>
  </outline>
</glyph>
